HIERARCHY
ROOT Hips
{
	OFFSET 0.000000 0.000000 0.000000 
	CHANNELS 6 Xposition Yposition Zposition Zrotation Xrotation Yrotation
	JOINT Spine
	{
		OFFSET -0.000000 8.280624 0.000000 
		CHANNELS 3 Zrotation Xrotation Yrotation
		JOINT Spine1
		{
			OFFSET -0.000000 24.860672 0.000000 
			CHANNELS 3 Zrotation Xrotation Yrotation
			JOINT Neck
			{
				OFFSET -0.000000 24.758574 2.250779 
				CHANNELS 3 Zrotation Xrotation Yrotation
				JOINT Head
				{
					OFFSET -0.000000 14.137651 -2.019665 
					CHANNELS 3 Zrotation Xrotation Yrotation
					End Site
					{
						OFFSET -0.000000 25.245806 0.000000 
					}
				}
			}
			JOINT LeftShoulder
			{
				OFFSET 4.021533 22.370487 -0.301823 
				CHANNELS 3 Zrotation Xrotation Yrotation
				JOINT LeftArm
				{
					OFFSET 12.928750 0.000000 0.000000 
					CHANNELS 3 Zrotation Xrotation Yrotation
					JOINT LeftForeArm
					{
						OFFSET 29.110218 0.000000 0.000000 
						CHANNELS 3 Zrotation Xrotation Yrotation
						JOINT LeftHand
						{
							OFFSET 26.112843 0.000000 0.000000 
							CHANNELS 3 Zrotation Xrotation Yrotation
							End Site
							{
								OFFSET 15.147485 0.000000 0.000000 
							}
						}
					}
				}
			}
			JOINT RightShoulder
			{
				OFFSET -4.040554 22.370487 -0.301823 
				CHANNELS 3 Zrotation Xrotation Yrotation
				JOINT RightArm
				{
					OFFSET -12.928750 0.000000 0.000000 
					CHANNELS 3 Zrotation Xrotation Yrotation
					JOINT RightForeArm
					{
						OFFSET -29.110218 0.000000 0.000000 
						CHANNELS 3 Zrotation Xrotation Yrotation
						JOINT RightHand
						{
							OFFSET -26.112843 0.000000 0.000000 
							CHANNELS 3 Zrotation Xrotation Yrotation
							End Site
							{
								OFFSET -15.147485 0.000000 0.000000 
							}
						}
					}
				}
			}
		}
	}
	JOINT LeftUpLeg
	{
		OFFSET 10.098323 0.000000 0.000000 
		CHANNELS 3 Zrotation Xrotation Yrotation
		JOINT LeftLeg
		{
			OFFSET -0.000000 -44.180832 0.000000 
			CHANNELS 3 Zrotation Xrotation Yrotation
			JOINT LeftFoot
			{
				OFFSET -0.000000 -40.401024 0.000000 
				CHANNELS 3 Zrotation Xrotation Yrotation
				JOINT LeftToeBase
				{
					OFFSET -0.000000 -6.563910 15.147485 
					CHANNELS 3 Zrotation Xrotation Yrotation
					End Site
					{
						OFFSET -0.000000 0.000000 4.039329 
					}
				}
			}
		}
	}
	JOINT RightUpLeg
	{
		OFFSET -10.098323 0.000000 0.000000 
		CHANNELS 3 Zrotation Xrotation Yrotation
		JOINT RightLeg
		{
			OFFSET -0.000000 -44.180832 0.000000 
			CHANNELS 3 Zrotation Xrotation Yrotation
			JOINT RightFoot
			{
				OFFSET -0.000000 -40.401024 0.000000 
				CHANNELS 3 Zrotation Xrotation Yrotation
				JOINT RightToeBase
				{
					OFFSET -0.000000 -6.563910 15.147485 
					CHANNELS 3 Zrotation Xrotation Yrotation
					End Site
					{
						OFFSET -0.000000 0.000000 4.039329 
					}
				}
			}
		}
	}
}
MOTION
Frames: 6
Frame Time: 0.008333
-33.093964 100.632072 -25.611931 2.876776 30.853868 147.890747 -2.765910 10.131065 -2.615174 11.181511 -4.439622 -2.425566 -3.291096 27.031080 -4.135254 -1.294698 30.568615 -4.480320 6.702047 -8.783689 -26.353489 -31.982080 31.552708 -84.247749 11.550400 -48.211201 13.646888 -39.216469 -50.890507 7.690791 -12.711253 -14.574183 21.428808 56.810009 14.115438 38.371529 2.742039 -44.569496 6.603445 21.016171 -46.369537 -12.928376 -16.225512 19.284563 -7.327188 -2.394307 8.678929 -5.396797 -7.197389 27.267248 5.808984 0.000000 0.000000 0.000000 -27.181667 37.537949 8.548640 -4.282431 31.501917 10.805696 12.837419 29.030170 -28.008566 0.000000 0.000000 0.000000 
-32.755314 100.643791 -25.740654 3.302675 31.008825 146.880371 -2.234825 10.041047 -1.536244 11.329186 -3.987073 -1.336951 -4.343917 26.658022 -4.181796 -0.445504 30.712563 -4.738465 6.637709 -7.162395 -24.577995 -35.591625 31.413141 -79.832527 3.011536 -54.360573 7.045320 -45.165810 -52.127602 -9.395192 -12.520180 -15.094584 23.550817 51.437714 19.812775 40.986542 0.454497 -40.621323 5.083263 26.665602 -42.623253 -11.177717 -16.183384 20.032158 -7.191894 -2.463534 7.990090 -4.951716 -7.333658 27.080904 6.191440 0.000000 0.000000 0.000000 -27.509766 37.646530 8.681385 -4.090609 31.241673 10.427985 12.423511 29.193909 -28.251574 0.000000 0.000000 0.000000 
-32.391506 100.639282 -25.853909 3.642420 31.159407 146.077515 -1.767057 10.141595 -0.228701 11.450880 -3.807289 -0.003811 -5.017684 26.189985 -4.519320 0.674861 30.870480 -5.290460 6.294652 -5.543199 -23.285549 -38.398026 31.405224 -75.524345 -12.993399 -58.042767 -8.784691 -39.193520 -54.747578 -19.340939 -12.300032 -15.447488 25.531948 45.512749 25.699854 43.919510 -1.105004 -37.520638 5.234933 30.456285 -40.033310 -11.979479 -16.122442 20.721443 -6.753183 -2.543085 7.386758 -4.638462 -7.285387 26.957069 6.265155 0.000000 0.000000 0.000000 -27.671404 37.867138 8.498710 -4.138041 30.956127 10.337514 12.387888 29.161777 -28.759678 0.000000 0.000000 0.000000 
-32.043560 100.623299 -25.974566 3.811260 31.361629 145.591263 -1.415147 10.536902 1.300140 11.381101 -4.064517 1.574779 -4.866675 25.639606 -5.294829 1.785376 31.047546 -6.215459 5.717724 -3.968484 -22.677807 -40.912098 31.415279 -71.454460 -29.475142 -56.215206 -28.453506 -14.942683 -59.427479 -12.282088 -12.428376 -14.990555 26.834230 39.483597 30.693422 47.623100 -1.640486 -37.008839 6.797247 28.522264 -40.065338 -15.655094 -16.139614 21.359819 -6.144684 -2.618091 6.899390 -4.575438 -7.209411 26.841644 6.276539 0.000000 0.000000 0.000000 -27.861454 38.244892 8.239201 -4.165424 30.605249 10.300529 12.413687 29.014656 -29.305489 0.000000 0.000000 0.000000 
-31.731745 100.617668 -26.117579 3.825810 31.651764 145.489456 -1.299324 10.974332 2.917114 11.297239 -4.276771 3.215487 -4.024536 24.724459 -6.511561 2.708344 31.324175 -7.508679 5.205391 -2.144292 -22.461540 -43.002419 30.785225 -68.314049 -37.098602 -49.030216 -41.577805 24.401125 -56.157860 13.397095 -12.983457 -14.794118 27.428410 34.362598 34.730404 51.344616 -1.114389 -37.967072 8.394765 22.642941 -40.698120 -17.893507 -16.211166 21.980555 -5.549697 -2.735703 6.529801 -4.649905 -7.099710 26.805712 6.238254 0.000000 0.000000 0.000000 -28.065804 38.840622 7.826017 -4.194740 30.154274 10.323669 12.389326 28.930395 -29.755081 0.000000 0.000000 0.000000 
-31.450865 100.630760 -26.329941 3.583787 32.070259 146.012939 -7.469192 10.855594 7.300950 21.222576 -5.457646 7.613687 -1.883654 25.473349 -11.149731 2.297602 29.953295 -12.091970 -0.911756 1.335873 -26.871830 -44.788113 29.159542 -66.325203 -34.233063 -43.994019 -42.719494 37.158089 -47.702717 24.961811 -19.133520 -13.221286 22.957155 30.257616 38.637791 54.251701 0.385595 -39.502106 10.900960 18.618042 -41.532455 -15.961227 -16.367561 22.644924 -5.295912 -2.894114 6.258558 -4.887605 -6.919257 26.785934 6.263550 0.000000 0.000000 0.000000 -28.273092 39.802017 7.056435 -4.240753 29.528551 10.490591 12.287170 28.986271 -30.019619 0.000000 0.000000 0.000000 
